# Blender v2.80 (sub 70) OBJ File: ''
# www.blender.org
mtllib cube_textured.mtl
o Cube_Cube.001
v -3.000000 -3.000000 1.000000
v -3.000000 -1.000000 1.000000
v -3.000000 -3.000000 -1.000000
v -3.000000 -1.000000 -1.000000
v -1.000000 -3.000000 1.000000
v -1.000000 -1.000000 1.000000
v -1.000000 -3.000000 -1.000000
v -1.000000 -1.000000 -1.000000
vt 0.250043 0.250043
vt 0.500000 0.250043
vt 0.500000 0.500000
vt 0.250043 0.500000
vt 0.250043 0.749957
vt 0.000087 0.749957
vt 0.000087 0.500000
vt 0.999913 0.500000
vt 0.749957 0.500000
vt 0.749957 0.250043
vt 0.999913 0.250043
vt 0.000087 0.250043
vt 0.000087 0.000087
vt 0.250043 0.000087
vn -1.0000 0.0000 0.0000
vn 0.0000 0.0000 -1.0000
vn 1.0000 0.0000 0.0000
vn 0.0000 0.0000 1.0000
vn 0.0000 -1.0000 0.0000
vn 0.0000 1.0000 0.0000
usemtl Material
s off
f 1/1/1 2/2/1 4/3/1 3/4/1
f 3/4/2 4/5/2 8/6/2 7/7/2
f 7/8/3 8/9/3 6/10/3 5/11/3
f 5/12/4 6/13/4 2/14/4 1/1/4
f 3/4/5 7/7/5 5/12/5 1/1/5
f 8/9/6 4/3/6 2/2/6 6/10/6
